<svg xmlns="http://www.w3.org/2000/svg">
    <defs>
        <symbol id="arrow">
            <path 
                fill-rule="evenodd" clip-rule="evenodd" d="M4.29289 8.29289C4.68342 7.90237 5.31658 7.90237 5.70711 8.29289L13 15.5858L20.2929 8.29289C20.6834 7.90237 21.3166 7.90237 21.7071 8.29289C22.0976 8.68342 22.0976 9.31658 21.7071 9.70711L13.7071 17.7071C13.3166 18.0976 12.6834 18.0976 12.2929 17.7071L4.29289 9.70711C3.90237 9.31658 3.90237 8.68342 4.29289 8.29289Z" fill="currentColor"
            />
        </symbol>

        <symbol id="question">
            <path 
                fill-rule="evenodd" clip-rule="evenodd" d="M12 3C7.02944 3 3 7.02944 3 12C3 16.9706 7.02944 21 12 21C16.9706 21 21 16.9706 21 12C21 7.02944 16.9706 3 12 3ZM1 12C1 5.92487 5.92487 1 12 1C18.0751 1 23 5.92487 23 12C23 18.0751 18.0751 23 12 23C5.92487 23 1 18.0751 1 12Z" fill="currentColor"
            />
            <path 
                fill-rule="evenodd" clip-rule="evenodd" d="M12.2582 8.02431C11.7927 7.94446 11.314 8.03194 10.9068 8.27126C10.4996 8.51057 10.1902 8.88628 10.0335 9.33184C9.85018 9.85282 9.27926 10.1266 8.75827 9.94333C8.23728 9.76005 7.96351 9.18914 8.14678 8.66815C8.46025 7.77704 9.07898 7.02562 9.89339 6.54699C10.7078 6.06836 11.6653 5.8934 12.5964 6.0531C13.5274 6.2128 14.3719 6.69685 14.9802 7.41952C15.5884 8.14204 15.9214 9.05647 15.9201 10.0009C15.9197 11.5313 14.7851 12.5419 13.9748 13.082C13.5392 13.3725 13.1107 13.586 12.795 13.7263C12.6358 13.7971 12.5016 13.8508 12.405 13.8876C12.3566 13.906 12.3174 13.9203 12.2888 13.9305L12.2541 13.9427L12.243 13.9464L12.2391 13.9477L12.2376 13.9483C12.2373 13.9484 12.2363 13.9487 11.9201 13L12.2363 13.9487C11.7124 14.1233 11.1461 13.8402 10.9714 13.3162C10.7969 12.7926 11.0796 12.2267 11.6028 12.0517L11.6016 12.0521C11.6017 12.0521 11.6018 12.052 11.6028 12.0517L11.6188 12.0461C11.6342 12.0406 11.6594 12.0314 11.693 12.0186C11.7605 11.9929 11.8607 11.9529 11.9827 11.8987C12.2296 11.789 12.551 11.6275 12.8654 11.4179C13.555 10.9582 13.9201 10.4691 13.9201 9.99999L13.9201 9.9985C13.9208 9.52618 13.7543 9.06886 13.4502 8.70752C13.146 8.34618 12.7238 8.10416 12.2582 8.02431Z" fill="currentColor"
            />
            <path 
                fill-rule="evenodd" clip-rule="evenodd" d="M12 15C12.5523 15 13 15.4477 13 16V16.5C13 17.0523 12.5523 17.5 12 17.5C11.4477 17.5 11 17.0523 11 16.5V16C11 15.4477 11.4477 15 12 15Z" fill="currentColor"
            />
        </symbol>

        <symbol id="cross">
            <path 
                fill-rule="evenodd" clip-rule="evenodd" d="M18.7071 5.29289C19.0976 5.68342 19.0976 6.31658 18.7071 6.70711L6.70711 18.7071C6.31658 19.0976 5.68342 19.0976 5.29289 18.7071C4.90237 18.3166 4.90237 17.6834 5.29289 17.2929L17.2929 5.29289C17.6834 4.90237 18.3166 4.90237 18.7071 5.29289Z" fill="currentColor"
            />
            <path 
                fill-rule="evenodd" clip-rule="evenodd" d="M5.29289 5.29289C5.68342 4.90237 6.31658 4.90237 6.70711 5.29289L18.7071 17.2929C19.0976 17.6834 19.0976 18.3166 18.7071 18.7071C18.3166 19.0976 17.6834 19.0976 17.2929 18.7071L5.29289 6.70711C4.90237 6.31658 4.90237 5.68342 5.29289 5.29289Z" fill="currentColor"
            />
        </symbol>

        <symbol id="logo">
            <g clip-path="url(#clip0_16746_155)">
            <rect y="1" width="30" height="30" fill="currentColor"/>
            <rect x="38" width="32" height="32" rx="16" fill="currentColor"/>
            <path d="M78 0L110 32H78V0Z" fill="currentColor"/>
            </g>
            <clipPath id="clip0_16746_155">
                <rect width="110" height="32" fill="white"/>
            </clipPath>
        </symbol>

        <symbol id="sun">
            <g clip-path="url(#clip0_16769_229)">
            <path fill="none" d="M12 17C14.7614 17 17 14.7614 17 12C17 9.23858 14.7614 7 12 7C9.23858 7 7 9.23858 7 12C7 14.7614 9.23858 17 12 17Z" stroke="#495057" stroke-width="2" stroke-linecap="round" stroke-linejoin="round"/>
            <path fill="none" d="M12 1V3" stroke="#495057" stroke-width="2" stroke-linecap="round" stroke-linejoin="round"/>
            <path fill="none" d="M12 21V23" stroke="#495057" stroke-width="2" stroke-linecap="round" stroke-linejoin="round"/>
            <path fill="none" d="M4.22021 4.21997L5.64021 5.63997" stroke="#495057" stroke-width="2" stroke-linecap="round" stroke-linejoin="round"/>
            <path fill="none" d="M18.3599 18.36L19.7799 19.78" stroke="#495057" stroke-width="2" stroke-linecap="round" stroke-linejoin="round"/>
            <path fill="none" d="M1 12H3" stroke="#495057" stroke-width="2" stroke-linecap="round" stroke-linejoin="round"/>
            <path fill="none" d="M21 12H23" stroke="#495057" stroke-width="2" stroke-linecap="round" stroke-linejoin="round"/>
            <path fill="none" d="M4.22021 19.78L5.64021 18.36" stroke="#495057" stroke-width="2" stroke-linecap="round" stroke-linejoin="round"/>
            <path fill="none" d="M18.3599 5.63997L19.7799 4.21997" stroke="#495057" stroke-width="2" stroke-linecap="round" stroke-linejoin="round"/>
            </g>
            <clipPath id="clip0_16769_229">
            <rect width="24" height="24" fill="white"/>
            </clipPath>
        </symbol>

        <symbol id="moon">
            <path d="M20.9999 12.79C20.8426 14.4922 20.2038 16.1144 19.1581 17.4668C18.1125 18.8192 16.7034 19.8458 15.0956 20.4265C13.4878 21.0073 11.7479 21.1181 10.0794 20.7461C8.41092 20.3741 6.8829 19.5345 5.67413 18.3258C4.46536 17.117 3.62584 15.589 3.25381 13.9205C2.88178 12.252 2.99262 10.5121 3.57336 8.9043C4.15411 7.29651 5.18073 5.88737 6.53311 4.84175C7.8855 3.79614 9.5077 3.15731 11.2099 3C10.2133 4.34827 9.73375 6.00945 9.85843 7.68141C9.98312 9.35338 10.7038 10.9251 11.8893 12.1106C13.0748 13.2961 14.6465 14.0168 16.3185 14.1415C17.9905 14.2662 19.6516 13.7866 20.9999 12.79V12.79Z" stroke="#ACB5BD" fill="none" stroke-width="2" stroke-linecap="round" stroke-linejoin="round"/>
        </symbol>


        <symbol id="burger">
            <path d="M3 12H21" stroke="#495057" stroke-width="2" stroke-linecap="round" stroke-linejoin="round"/>
            <path d="M3 6H21" stroke="#495057" stroke-width="2" stroke-linecap="round" stroke-linejoin="round"/>
            <path d="M3 18H21" stroke="#495057" stroke-width="2" stroke-linecap="round" stroke-linejoin="round"/>            
        </symbol>
    </defs>
</svg>
